<svg xmlns="http://www.w3.org/2000/svg" width="17" height="13" viewBox="0 0 17 13">
  <path fill="#A6DB31" fill-rule="evenodd" d="M962.703196,105.294835 L953.758389,114.239699 C953.549692,114.44857 953.297258,114.55289 953.000569,114.55289 C952.715074,114.55289 952.468064,114.44857 952.259309,114.239699 L946.295758,108.276495 C946.098312,108.078645 945.9993,107.832039 945.9993,107.535234 C945.9993,107.227814 946.097908,106.975034 946.295758,106.777299 L947.794839,105.294835 C948.003767,105.086195 948.250547,104.981875 948.536273,104.981875 C948.821999,104.981875 949.069124,105.086253 949.277706,105.294835 L953.000742,109.017756 L959.721824,102.313175 C959.930464,102.104478 960.177532,102.0001 960.463085,102.0001 C960.748407,102.0001 960.995763,102.104478 961.204288,102.313175 L962.703427,103.79587 C962.90145,103.993432 963,104.245981 963,104.553402 C963,104.850033 962.90145,105.097158 962.703196,105.294835" transform="translate(-946 -102)"/>
</svg>
