<svg width="24" height="24" xmlns="http://www.w3.org/2000/svg">
  <path d="M0 12c0-2.176.536-4.184 1.608-6.024a11.915 11.915 0 0 1 4.368-4.368C7.816.536 9.824 0 12 0s4.184.536 6.024 1.608a11.915 11.915 0 0 1 4.368 4.368C23.464 7.816 24 9.824 24 12s-.536 4.184-1.608 6.024a11.915 11.915 0 0 1-4.368 4.368C16.184 23.464 14.176 24 12 24s-4.184-.536-6.024-1.608a11.915 11.915 0 0 1-4.368-4.368C.536 16.184 0 14.176 0 12zm1.992 0c0 2.496.84 4.696 2.52 6.6.768-1.504 1.984-2.936 3.648-4.296 1.664-1.36 3.288-2.216 4.872-2.568-.24-.56-.472-1.064-.696-1.512-2.752.88-5.728 1.32-8.928 1.32-.624 0-1.088-.008-1.392-.024 0 .064-.004.144-.012.24a2.985 2.985 0 0 0-.012.24zm.312-2.472c.352.032.872.048 1.56.048 2.672 0 5.208-.36 7.608-1.08-1.216-2.16-2.552-3.96-4.008-5.4A9.743 9.743 0 0 0 4.212 5.76a10.247 10.247 0 0 0-1.908 3.768zM5.88 19.896c1.808 1.408 3.848 2.112 6.12 2.112 1.184 0 2.36-.224 3.528-.672a35.241 35.241 0 0 0-1.872-7.944c-1.472.32-2.956 1.128-4.452 2.424S6.6 18.472 5.88 19.896zM9.552 2.328c1.408 1.456 2.712 3.272 3.912 5.448 2.176-.912 3.816-2.072 4.92-3.48C16.528 2.76 14.4 1.992 12 1.992c-.816 0-1.632.112-2.448.336zm4.776 7.152c.24.512.512 1.16.816 1.944a41.19 41.19 0 0 1 3.864-.168c.992 0 1.976.024 2.952.072-.128-2.176-.912-4.112-2.352-5.808-1.04 1.552-2.8 2.872-5.28 3.96zm1.416 3.624A34.448 34.448 0 0 1 17.4 20.4a10.014 10.014 0 0 0 3.096-3.144 9.694 9.694 0 0 0 1.44-4.152 47.055 47.055 0 0 0-3.192-.12c-.88 0-1.88.04-3 .12z" fill="#C2C3CA" fill-rule="nonzero"/>
</svg>
