<svg width="24" height="24" viewBox="0 0 24 24" xmlns="http://www.w3.org/2000/svg">
  <path d="M21.75 17.281a4.474 4.474 0 0 1-4.469 4.469H6.586a4.474 4.474 0 0 1-4.468-4.469V6.587a4.474 4.474 0 0 1 4.468-4.47h10.695a4.474 4.474 0 0 1 4.469 4.47V17.28zM17.28 0H6.587A6.594 6.594 0 0 0 0 6.587V17.28a6.594 6.594 0 0 0 6.586 6.586h10.695a6.594 6.594 0 0 0 6.586-6.586V6.587A6.594 6.594 0 0 0 17.281 0zm-5.346 15.966A4.037 4.037 0 0 1 7.9 11.934 4.037 4.037 0 0 1 11.934 7.9a4.037 4.037 0 0 1 4.032 4.033 4.037 4.037 0 0 1-4.032 4.032m0-10.182a6.157 6.157 0 0 1 6.15 6.15 6.157 6.157 0 0 1-6.15 6.15 6.157 6.157 0 0 1-6.15-6.15 6.157 6.157 0 0 1 6.15-6.15zm6.408-1.796a1.557 1.557 0 0 1 1.098 2.652c-.29.288-.689.454-1.098.454-.408 0-.81-.166-1.097-.454-.29-.29-.456-.69-.456-1.099 0-.41.166-.81.456-1.098a1.56 1.56 0 0 1 1.097-.455z" fill="#C2C3CA" fill-rule="evenodd"/>
</svg>
