<svg width="24" height="19" viewBox="0 0 24 19" xmlns="http://www.w3.org/2000/svg">
  <path d="M24 2.248c-.883.381-1.831.64-2.827.756A4.842 4.842 0 0 0 23.337.35c-.954.55-2.007.948-3.128 1.165A4.97 4.97 0 0 0 16.615 0c-2.719 0-4.923 2.149-4.923 4.797 0 .376.043.743.127 1.093A14.101 14.101 0 0 1 1.672.877a4.67 4.67 0 0 0-.666 2.412c0 1.665.87 3.133 2.19 3.993a5.022 5.022 0 0 1-2.23-.602v.06c0 2.324 1.697 4.263 3.949 4.705a5.109 5.109 0 0 1-1.298.168 4.73 4.73 0 0 1-.927-.09c.627 1.908 2.445 3.295 4.599 3.333a10.043 10.043 0 0 1-6.115 2.05c-.397 0-.789-.022-1.174-.065A14.18 14.18 0 0 0 7.547 19c9.056 0 14.007-7.311 14.007-13.652l-.017-.621A9.699 9.699 0 0 0 24 2.248" fill="#C2C3CA" fill-rule="evenodd"/>
</svg>
