<svg width="120" height="37" xmlns="http://www.w3.org/2000/svg"><style></style><g fill-rule="evenodd" clip-rule="evenodd" id="Layer_2"><path d="M119.21.57h-8.3c-.44 0-.79.35-.79.79V35.3c0 .44.35.79.79.79h8.3c.44 0 .79-.35.79-.79V1.36c0-.44-.35-.79-.79-.79" fill="#e54962"/><path d="M96.49 22.04a5.36 5.36 0 1 1-10.72 0 5.36 5.36 0 0 1 10.72 0" fill="#2bb254"/><path d="M103.17 22.81c.31.31.31.81 0 1.12l-3.14 3.14a.79.79 0 0 1-1.12 0l-9.37-9.37c-1.92-1.92-1.92-5.03 0-6.95a4.913 4.913 0 0 1 7.64 6.08l5.99 5.98z" fill="#30ca66"/><path d="M43.47 6.2L49.34.33a.79.79 0 0 1 1.12 0L63.63 13.5l15.83 15.83c.31.31.31.81 0 1.12l-5.87 5.87a.79.79 0 0 1-1.12 0l-29-29a.79.79 0 0 1 0-1.12" fill="#f6a91b"/><path d="M34.73.57h-8.31c-.44 0-.79.35-.79.79V19.4c0 4.35-3.53 7.88-7.88 7.88s-7.88-3.53-7.88-7.88V1.36c0-.44-.35-.79-.79-.79H.79C.35.57 0 .92 0 1.36v17.78C0 28.95 7.95 36.9 17.76 36.9c9.81 0 17.76-7.95 17.76-17.76V1.36c0-.44-.35-.79-.79-.79" fill="#4db6e4"/><path d="M73.59.33l5.87 5.87c.31.31.31.81 0 1.12l-29 29a.79.79 0 0 1-1.12 0l-5.87-5.87a.79.79 0 0 1 0-1.12l29-29a.79.79 0 0 1 1.12 0" fill="#fec11e"/></g></svg>