<svg width="120" height="37" viewBox="0 0 120 37" xmlns="http://www.w3.org/2000/svg" xmlns:xlink="http://www.w3.org/1999/xlink">
    <defs>
        <path id="a" d="M0 .261h10.094v19.852H0z"/>
        <path id="c" d="M0 .317h33.092v16.546H0z"/>
        <path id="e" d="M.25.261h10.095V36.66H.25z"/>
        <path id="g" d="M.25.261h10.095v10.095H.25z"/>
    </defs>
    <g fill="none" fill-rule="evenodd">
        <g transform="translate(0 .105)">
            <mask id="b" fill="#fff">
                <use xlink:href="#a"/>
            </mask>
            <path d="M0 20.113V.907C0 .551.29.261.646.261h8.802c.357 0 .646.29.646.646v19.206H0z" fill="#44C8F5" mask="url(#b)"/>
        </g>
        <path d="M33.092 20.218V1.013a.646.646 0 0 0-.646-.646h-8.802a.646.646 0 0 0-.646.646v19.205h10.094z" fill="#44C8F5"/>
        <g transform="translate(0 19.901)">
            <mask id="d" fill="#fff">
                <use xlink:href="#c"/>
            </mask>
            <path d="M33.092.317c0 9.138-7.408 16.546-16.546 16.546C7.408 16.863 0 9.455 0 .317h33.092z" fill="#44C8F5" mask="url(#d)"/>
        </g>
        <path d="M10.094 35.46C4.162 32.944 0 27.066 0 20.217h10.094V35.46zm12.904 0c5.933-2.515 10.094-8.393 10.094-15.242H22.998V35.46z" fill="#09F"/>
        <path d="M46.365 36.435L40.14 30.21a.645.645 0 0 1 0-.913L68.752.685a.646.646 0 0 1 .913 0l6.225 6.226a.645.645 0 0 1 0 .912L47.278 36.435a.645.645 0 0 1-.913 0" fill="#FFC233"/>
        <path d="M69.665 36.435l6.225-6.225a.646.646 0 0 0 0-.913L47.278.685a.645.645 0 0 0-.913 0L40.14 6.911a.645.645 0 0 0 0 .912l28.612 28.612c.252.252.66.252.913 0" fill="#FFC233"/>
        <g transform="translate(109.244 .105)">
            <mask id="f" fill="#fff">
                <use xlink:href="#e"/>
            </mask>
            <path d="M9.796 36.659H.8a.548.548 0 0 1-.549-.548V.809A.548.548 0 0 1 .8.261h8.997c.303 0 .549.246.549.548v35.302a.548.548 0 0 1-.549.548" fill="#F06292" mask="url(#f)"/>
        </g>
        <path d="M96.914 22.374a6.988 6.988 0 1 1-13.977 0 6.988 6.988 0 0 1 13.977 0" fill="#A6DB31"/>
        <path d="M102.567 25.17l-7.87-7.87a5.623 5.623 0 1 0-9.623-3.949 5.603 5.603 0 0 0 1.694 4.017c.007.008.01.018.017.026l11.78 11.779a.65.65 0 0 0 .918 0l3.084-3.084a.65.65 0 0 0 0-.92" fill="#A6DB31"/>
        <path fill="#F58220" d="M58.015 25.698l7.137-7.138-7.137-7.137-7.138 7.137z"/>
        <g transform="translate(109.244 .105)">
            <mask id="h" fill="#fff">
                <use xlink:href="#g"/>
            </mask>
            <path d="M10.345 10.349V.809a.548.548 0 0 0-.549-.548H.8A.548.548 0 0 0 .25.81v9.546l10.095-.007z" fill="#ED1066" mask="url(#h)"/>
        </g>
        <path d="M86.074 16.545a6.953 6.953 0 0 1 3.851-1.16c1.853 0 3.532.726 4.783 1.903" fill="#5BBF0D"/>
        <path d="M95.233 17.835l-.535-.535.01-.012a6.956 6.956 0 0 0-4.783-1.903 6.953 6.953 0 0 0-3.85 1.16c.204.296.436.572.693.823.007.008.01.018.017.026l8.914 8.914a6.953 6.953 0 0 0 1.214-3.934 6.953 6.953 0 0 0-1.68-4.54" fill="#5BBF0D"/>
    </g>
</svg>