<svg width="20" height="23" viewBox="0 0 20 23" xmlns="http://www.w3.org/2000/svg">
  <path d="M6.148 5.159l2.33 3.977-3.65 6.34c-.256.427-.563.64-.923.64H.51a.478.478 0 0 1-.44-.236c-.095-.157-.095-.324 0-.5l3.593-6.23c.009 0 .009-.005 0-.014l-2.287-3.88c-.113-.204-.118-.376-.014-.515.085-.139.237-.208.454-.208H5.21c.379 0 .691.208.937.626zM19.922.723l-7.498 12.988v.014l4.771 8.552c.105.185.11.357.015.514-.095.14-.246.209-.455.209h-3.393c-.398 0-.71-.209-.938-.626l-4.813-8.65L15.15.627c.237-.417.54-.626.909-.626h3.422c.208 0 .354.07.44.209.104.148.104.32 0 .514z" fill="#C2C3CA" fill-rule="evenodd"/>
</svg>
